<?xml version="1.0" standalone="no"?><!DOCTYPE svg PUBLIC "-//W3C//DTD SVG 1.1//EN" "http://www.w3.org/Graphics/SVG/1.1/DTD/svg11.dtd"><svg t="1665991383456" class="icon" viewBox="0 0 1024 1024" version="1.1" xmlns="http://www.w3.org/2000/svg" p-id="1768" xmlns:xlink="http://www.w3.org/1999/xlink" width="64" height="64"><path d="M512 512m-414 0a414 414 0 1 0 828 0 414 414 0 1 0-828 0Z" fill="#F0C48A" p-id="1769"></path><path d="M391.2 382.8m-371.2 0a371.2 371.2 0 1 0 742.4 0 371.2 371.2 0 1 0-742.4 0Z" fill="#A4CFF2" p-id="1770"></path><path d="M691 344.8c0-127.4-64.2-239.8-162-306.6-42.6-17-89-26.4-137.8-26.4C186.2 11.8 20 177.8 20 382.8c0 127.4 64.2 239.8 162 306.6 42.6 17 89 26.4 137.8 26.4 205 0.2 371.2-166 371.2-371z" fill="#D3E6F8" p-id="1771"></path><path d="M391.2 765.8c-54.2 0-104.6-41-141.8-115.2-35.8-71.6-55.6-166.8-55.6-267.6 0-101 19.8-196 55.6-267.6C286.6 41 337 0 391.2 0c54.2 0 104.6 41 141.8 115.2 35.8 71.8 55.6 166.8 55.6 267.6s-19.8 196-55.6 267.6c-37.2 74.4-87.6 115.4-141.8 115.4z m0-742.4c-44.8 0-87.8 36.4-120.8 102.2-34.2 68.6-53.2 159.8-53.2 257.2 0 97.4 18.8 188.8 53.2 257.2 33 66 75.8 102.2 120.8 102.2 44.8 0 87.8-36.4 120.8-102.2 34.2-68.6 53.2-159.8 53.2-257.2 0-97.4-18.8-188.8-53.2-257.2-33-65.8-76-102.2-120.8-102.2z" fill="#4C4372" p-id="1772"></path><path d="M391.2 765.8c-108.8 0-212.8-46.6-285.4-127.6-2.4-2.6-3.4-6.2-2.8-9.8 0.6-3.6 2.8-6.6 5.8-8.4 72-40.2 175-63.4 282.4-63.4s210.2 23 282.4 63.4c3.2 1.8 5.2 4.8 5.8 8.4 0.6 3.6-0.4 7.2-2.8 9.8-72.6 81-176.6 127.6-285.4 127.6zM133.6 633.6c67.6 69.4 160.6 108.8 257.6 108.8 97 0 190-39.4 257.6-108.8-67.8-34-160.6-53.4-257.6-53.4s-189.8 19.4-257.6 53.4zM391.2 209c-107.4 0-210.2-23-282.4-63.4-3.2-1.8-5.2-4.8-5.8-8.4-0.6-3.6 0.4-7.2 2.8-9.8C178.4 46.6 282.4 0 391.2 0S604 46.6 676.6 127.6c2.4 2.6 3.4 6.2 2.8 9.8-0.6 3.6-2.8 6.6-5.8 8.4-72.2 40.2-175 63.2-282.4 63.2zM133.6 132.2c67.8 34 160.6 53.4 257.6 53.4 97 0 189.8-19.4 257.6-53.4-67.6-69.4-160.6-108.8-257.6-108.8-97 0-190 39.6-257.6 108.8z" fill="#4C4372" p-id="1773"></path><path d="M391.2 765.8C180 765.8 8.4 594 8.4 382.8S180 0 391.2 0 774 171.8 774 382.8s-171.6 383-382.8 383z m0-742.4c-198.2 0-359.4 161.2-359.4 359.4s161.2 359.4 359.4 359.4 359.4-161.2 359.4-359.4S589.4 23.4 391.2 23.4z" fill="#4C4372" p-id="1774"></path><path d="M759.4 394.6H20c-6.4 0-11.8-5.2-11.8-11.8s5.2-11.8 11.8-11.8h739.4c6.4 0 11.8 5.2 11.8 11.8s-5.4 11.8-11.8 11.8z" fill="#4C4372" p-id="1775"></path><path d="M17.2 676v232.6c0 57.4 46.4 103.8 103.8 103.8s103.8-46.4 103.8-103.8v-102L17.2 676zM765.2 676v232.6c0 57.4-46.4 103.8-103.8 103.8s-103.8-46.4-103.8-103.8v-102L765.2 676z" fill="#7BABF1" p-id="1776"></path><path d="M121 1024c-63.6 0-115.6-51.8-115.6-115.6V676c0-4.2 2.4-8.2 6-10.2 3.8-2 8.4-2 12 0.4l207.6 130.6c3.4 2.2 5.4 5.8 5.4 10v102c0 63.4-51.8 115.2-115.4 115.2zM28.8 697.2v211.4c0 50.8 41.2 92 92 92s92-41.2 92-92v-95.4l-184-116zM661.4 1024c-63.6 0-115.6-51.8-115.6-115.6v-102c0-4 2-7.8 5.4-10L759 666c3.6-2.2 8.2-2.4 12-0.4 3.8 2 6 6 6 10.2v232.6c0 63.8-51.8 115.6-115.6 115.6z m-92-211v95.4c0 50.8 41.2 92 92 92s92-41.2 92-92V697.2l-184 115.8z" fill="#4C4372" p-id="1777"></path><path d="M603.6 837.6H178.8c-89.4 0-161.6-72.4-161.6-161.6 0-89.4 72.4-161.6 161.6-161.6h424.8c89.4 0 161.6 72.4 161.6 161.6 0 89.2-72.4 161.6-161.6 161.6z" fill="#7BABF1" p-id="1778"></path><path d="M712.8 676c0-89.4-72.4-161.6-161.6-161.6H178.8c-89.4 0-161.6 72.4-161.6 161.6 0 89.4 72.4 161.6 161.6 161.6h372.4c89.2 0 161.6-72.4 161.6-161.6z" fill="#A4CFF2" p-id="1779"></path><path d="M347.2 772.8h-45c-10.4 0-18.6-8.4-18.6-18.6 0-10.4 8.4-18.6 18.6-18.6h45c10.4 0 18.6 8.4 18.6 18.6 0 10.2-8.4 18.6-18.6 18.6zM480.2 772.8h-45c-10.4 0-18.6-8.4-18.6-18.6 0-10.4 8.4-18.6 18.6-18.6h45c10.4 0 18.6 8.4 18.6 18.6 0.2 10.2-8.2 18.6-18.6 18.6z" fill="#7BABF1" p-id="1780"></path><path d="M274.4 644.8h-58.8v-59H153.2v59H94.2v62.4h59V766h62.4v-58.8h58.8z" fill="#FD919E" p-id="1781"></path><path d="M598 611.4m-25.6 0a25.6 25.6 0 1 0 51.2 0 25.6 25.6 0 1 0-51.2 0Z" fill="#FD919E" p-id="1782"></path><path d="M598 740.6m-25.6 0a25.6 25.6 0 1 0 51.2 0 25.6 25.6 0 1 0-51.2 0Z" fill="#FD919E" p-id="1783"></path><path d="M662.6 676m-25.6 0a25.6 25.6 0 1 0 51.2 0 25.6 25.6 0 1 0-51.2 0Z" fill="#FD919E" p-id="1784"></path><path d="M533.4 676m-25.6 0a25.6 25.6 0 1 0 51.2 0 25.6 25.6 0 1 0-51.2 0Z" fill="#FD919E" p-id="1785"></path><path d="M603.6 849.4H178.8c-95.6 0-173.4-77.8-173.4-173.4s77.8-173.4 173.4-173.4h424.8c95.6 0 173.4 77.8 173.4 173.4s-77.8 173.4-173.4 173.4zM178.8 526c-82.6 0-150 67.2-150 150s67.2 150 150 150h424.8c82.6 0 150-67.2 150-150s-67.2-150-150-150H178.8z" fill="#4C4372" p-id="1786"></path><path d="M347.2 784.4h-45c-16.8 0-30.4-13.6-30.4-30.4 0-16.8 13.6-30.4 30.4-30.4h45c16.8 0 30.4 13.6 30.4 30.4 0 16.8-13.6 30.4-30.4 30.4z m-45-37.4c-3.8 0-7 3.2-7 7s3.2 7 7 7h45c3.8 0 7-3.2 7-7s-3.2-7-7-7h-45zM480.2 784.4h-45c-16.8 0-30.4-13.6-30.4-30.4 0-16.8 13.6-30.4 30.4-30.4h45c16.8 0 30.4 13.6 30.4 30.4 0 16.8-13.6 30.4-30.4 30.4z m-45-37.4c-3.8 0-7 3.2-7 7s3.2 7 7 7h45c3.8 0 7-3.2 7-7s-3.2-7-7-7h-45z" fill="#4C4372" p-id="1787"></path><path d="M598 648.6c-20.6 0-37.2-16.8-37.2-37.2 0-20.6 16.8-37.2 37.2-37.2s37.2 16.8 37.2 37.2c0 20.4-16.6 37.2-37.2 37.2z m0-51c-7.6 0-13.8 6.2-13.8 13.8s6.2 13.8 13.8 13.8 13.8-6.2 13.8-13.8-6.2-13.8-13.8-13.8zM598 777.8c-20.6 0-37.2-16.8-37.2-37.2s16.8-37.2 37.2-37.2 37.2 16.8 37.2 37.2-16.6 37.2-37.2 37.2z m0-51c-7.6 0-13.8 6.2-13.8 13.8s6.2 13.8 13.8 13.8 13.8-6.2 13.8-13.8-6.2-13.8-13.8-13.8zM662.6 713.2c-20.6 0-37.2-16.8-37.2-37.2s16.8-37.2 37.2-37.2 37.2 16.8 37.2 37.2-16.6 37.2-37.2 37.2z m0-51c-7.6 0-13.8 6.2-13.8 13.8s6.2 13.8 13.8 13.8 13.8-6.2 13.8-13.8-6.2-13.8-13.8-13.8zM533.4 713.2c-20.6 0-37.2-16.8-37.2-37.2s16.8-37.2 37.2-37.2 37.2 16.8 37.2 37.2-16.6 37.2-37.2 37.2z m0-51c-7.6 0-13.8 6.2-13.8 13.8s6.2 13.8 13.8 13.8c7.6 0 13.8-6.2 13.8-13.8s-6.2-13.8-13.8-13.8z" fill="#4C4372" p-id="1788"></path><path d="M246.8 644.4h27.6v63h-27.6z" fill="#E8677D" p-id="1789"></path><path d="M215.6 777.8H153.2c-6.4 0-11.8-5.2-11.8-11.8v-47.2H94.2c-6.4 0-11.8-5.2-11.8-11.8v-62.4c0-6.4 5.2-11.8 11.8-11.8h47.2v-47.2c0-6.4 5.2-11.8 11.8-11.8h62.4c6.4 0 11.8 5.2 11.8 11.8v47.2h47.2c6.4 0 11.8 5.2 11.8 11.8v62.4c0 6.4-5.2 11.8-11.8 11.8h-47.2V766c0 6.4-5.4 11.8-11.8 11.8z m-50.8-23.6h39v-47.2c0-6.4 5.2-11.8 11.8-11.8h47.2v-39h-47.2c-6.4 0-11.8-5.2-11.8-11.8v-47.2H164.8v47.2c0 6.4-5.2 11.8-11.8 11.8H106v39h47.2c6.4 0 11.8 5.2 11.8 11.8v47.2z" fill="#4C4372" p-id="1790"></path><path d="M762.2 395c-4.2 0-8.4-2.2-10.4-6.4-3-5.8-0.8-12.8 5-15.8l180-93.6c5.8-3 12.8-0.8 15.8 5s0.8 12.8-5 15.8l-180 93.6c-1.6 1-3.4 1.4-5.4 1.4z" fill="#4C4372" p-id="1791"></path><path d="M941.2 488.6c-1.8 0-3.6-0.4-5.4-1.4l-180-93.6c-5.8-3-8-10-5-15.8 3-5.8 10-8 15.8-5l180 93.6c5.8 3 8 10 5 15.8-2 4.2-6.2 6.4-10.4 6.4z" fill="#4C4372" p-id="1792"></path><path d="M762.2 383.2m-64.6 0a64.6 64.6 0 1 0 129.2 0 64.6 64.6 0 1 0-129.2 0Z" fill="#FD919E" p-id="1793"></path><path d="M942.2 289.6m-64.6 0a64.6 64.6 0 1 0 129.2 0 64.6 64.6 0 1 0-129.2 0Z" fill="#FD919E" p-id="1794"></path><path d="M942.2 477m-64.6 0a64.6 64.6 0 1 0 129.2 0 64.6 64.6 0 1 0-129.2 0Z" fill="#FD919E" p-id="1795"></path><path d="M762.2 459.6c-42 0-76.4-34.2-76.4-76.4s34.2-76.4 76.4-76.4 76.4 34.2 76.4 76.4-34.2 76.4-76.4 76.4z m0-129.2c-29.2 0-52.8 23.8-52.8 52.8 0 29.2 23.8 52.8 52.8 52.8 29.2 0 52.8-23.8 52.8-52.8 0.2-29-23.6-52.8-52.8-52.8zM942.2 366c-42 0-76.4-34.2-76.4-76.4s34.2-76.4 76.4-76.4 76.4 34.2 76.4 76.4-34.2 76.4-76.4 76.4z m0-129.2c-29.2 0-52.8 23.8-52.8 52.8 0 29.2 23.8 52.8 52.8 52.8s52.8-23.8 52.8-52.8c0.2-29-23.6-52.8-52.8-52.8zM942.2 553.2c-42 0-76.4-34.2-76.4-76.4s34.2-76.4 76.4-76.4 76.4 34.2 76.4 76.4-34.2 76.4-76.4 76.4z m0-129.2c-29.2 0-52.8 23.8-52.8 52.8 0 29.2 23.8 52.8 52.8 52.8s52.8-23.8 52.8-52.8c0.2-29-23.6-52.8-52.8-52.8z" fill="#4C4372" p-id="1796"></path></svg>